<svg width="32" height="32" viewBox="0 0 32 32" fill="none" xmlns="http://www.w3.org/2000/svg">
<path d="M12.8 1H19.2C21.4567 1 23.0891 1.00078 24.373 1.10567C25.6451 1.20961 26.4868 1.41078 27.1779 1.76295C28.4951 2.43407 29.5659 3.50493 30.237 4.82207C30.5892 5.51325 30.7904 6.35487 30.8943 7.62705C30.9992 8.9109 31 10.5433 31 12.8V19.2C31 21.4567 30.9992 23.0891 30.8943 24.373C30.7904 25.6451 30.5892 26.4868 30.237 27.1779C29.5659 28.4951 28.4951 29.5659 27.1779 30.237C26.4868 30.5892 25.6451 30.7904 24.373 30.8943C23.0891 30.9992 21.4567 31 19.2 31H12.8C10.5433 31 8.9109 30.9992 7.62705 30.8943C6.35487 30.7904 5.51325 30.5892 4.82207 30.237C3.50493 29.5659 2.43407 28.4951 1.76295 27.1779C1.41078 26.4868 1.20961 25.6451 1.10567 24.373C1.00078 23.0891 1 21.4567 1 19.2V12.8C1 10.5433 1.00078 8.9109 1.10567 7.62705C1.20961 6.35487 1.41078 5.51325 1.76295 4.82207C2.43407 3.50493 3.50493 2.43407 4.82207 1.76295C5.51325 1.41078 6.35487 1.20961 7.62705 1.10567C8.9109 1.00078 10.5433 1 12.8 1Z" fill="black"/>
<path fill-rule="evenodd" clip-rule="evenodd" d="M20.0376 5.27223C19.9226 5.33147 19.8512 5.44366 19.7639 5.70203C19.7406 5.77101 19.6495 6.02497 19.5615 6.26639C19.4736 6.50781 19.3677 6.80583 19.3264 6.92863C19.285 7.05146 19.1671 7.37753 19.0642 7.65325C18.9614 7.92898 18.8528 8.22041 18.823 8.30089C18.7932 8.38136 18.6875 8.651 18.5882 8.90009C18.4888 9.14917 18.3879 9.40314 18.3639 9.46445C18.34 9.52576 18.268 9.69821 18.204 9.84766C18.14 9.99711 18.0573 10.1946 18.0203 10.2866C17.8913 10.6067 17.1224 12.3528 17.0356 12.5227C17.0145 12.564 16.9603 12.5992 16.6628 12.765C16.2048 13.0203 15.4918 13.4393 15.1281 13.6669C14.7483 13.9046 14.1494 14.2951 14.0411 14.3756C13.9942 14.4105 13.9053 14.4817 13.8436 14.5339C13.7776 14.5896 13.7261 14.6236 13.7186 14.6163C13.7112 14.6089 13.712 14.5667 13.7206 14.5137C13.7587 14.28 13.7937 12.1775 13.7965 9.95914C13.7984 8.39955 13.7915 8.12889 13.7411 7.7853C13.7005 7.508 13.6469 7.34834 13.5209 7.12846C13.3758 6.87547 13.2664 6.81256 13.1603 6.92118C13.1151 6.96736 13.1204 7.00494 13.172 7.00494C13.2862 7.00494 13.3837 7.21133 13.4785 7.65357C13.5079 7.79049 13.5251 7.92451 13.5358 8.09949C13.5925 9.02588 13.5927 12.3057 13.5361 13.5752C13.5155 14.0385 13.46 14.6244 13.4236 14.7642C13.3871 14.9046 13.3333 15.0246 13.1669 15.3371C13.0958 15.4707 13.0342 15.5964 13.0302 15.6162C13.0215 15.6586 13.084 16.0235 13.1253 16.1724C13.141 16.2289 13.1841 16.3321 13.2209 16.4018L13.288 16.5285L13.2863 17.3163C13.2832 18.7629 13.2212 19.8973 13.1095 20.5515C13.0767 20.7435 13.0202 20.9941 12.9919 21.0729C12.9572 21.1692 12.8719 21.3254 12.6728 21.6575C12.4062 22.1021 12.2038 22.4162 11.8291 22.9674C11.4268 23.5591 11.2071 23.8603 10.9635 24.1541C10.6084 24.5824 9.95589 25.3301 9.40325 25.942C8.94713 26.447 8.83325 26.5942 8.83325 26.6787C8.83325 26.7603 8.92033 26.773 9.0535 26.7109C9.10039 26.6891 9.30821 26.55 9.51532 26.402C9.72242 26.2539 9.99099 26.0637 10.1121 25.9793C10.2333 25.8949 10.4059 25.772 10.4958 25.7063C10.5857 25.6405 10.6873 25.5681 10.7217 25.5453C10.7561 25.5225 10.9127 25.4029 11.0698 25.2794C11.397 25.0224 11.669 24.7719 11.8222 24.5866C11.967 24.4115 12.1326 24.1769 12.2122 24.0338C12.2947 23.8858 12.4516 23.5414 12.5742 23.2391C12.7311 22.8521 13.1455 21.6468 13.1752 21.491C13.1809 21.4607 13.2103 21.3765 13.2404 21.3039C13.3068 21.1439 13.6639 20.4571 13.8272 20.1755C13.8923 20.0632 14.0136 19.8439 14.0967 19.6881C14.1798 19.5323 14.2915 19.3254 14.345 19.2283C14.3984 19.1311 14.568 18.8071 14.7218 18.5082C14.8757 18.2093 15.011 17.9585 15.0225 17.9508C15.0487 17.9334 15.1523 17.9876 15.4963 18.199C15.9397 18.4716 16.4604 18.77 16.9066 19.0074C17.3101 19.2221 18.0944 19.6032 18.4106 19.7381C19.2366 20.0908 19.4481 20.1739 19.8691 20.3113C20.439 20.4973 20.8032 20.585 21.2674 20.6479C21.447 20.6722 21.5841 20.679 22.0198 20.685C22.6467 20.6937 22.9134 20.6789 23.0138 20.6299C23.0838 20.5957 23.1512 20.5132 23.1646 20.4452C23.1709 20.4131 23.1628 20.3887 23.1299 20.3407C23.0767 20.2632 22.9666 20.1811 22.7253 20.0392C22.4659 19.8867 22.1003 19.649 21.9062 19.5069C21.8163 19.4411 21.656 19.3023 21.5499 19.1985C21.264 18.9189 21.0301 18.599 20.8471 18.2376C20.7251 17.9967 20.6361 17.7889 20.5632 17.5746C20.4289 17.1798 20.3794 16.8973 20.3575 16.4001C20.3409 16.0227 20.34 13.3228 20.3562 12.2817C20.3657 11.6695 20.3711 11.5422 20.3881 11.5255C20.4109 11.5031 20.6894 11.4335 21.0252 11.3663C21.4521 11.2809 22.0424 11.1565 22.1475 11.1299C22.2076 11.1146 22.262 11.092 22.2725 11.078C22.3037 11.0361 22.3096 10.9874 22.288 10.9495C22.2703 10.9185 22.2566 10.9131 22.1856 10.9095C22.107 10.9055 21.9079 10.9419 20.678 11.1855C20.5222 11.2163 20.3902 11.2368 20.3848 11.2309C20.3793 11.225 20.3676 10.5869 20.3586 9.81282C20.3255 6.93779 20.2985 5.56457 20.2719 5.39546C20.262 5.33284 20.2494 5.30398 20.2219 5.2805C20.1782 5.24319 20.1007 5.23972 20.0376 5.27223ZM20.0567 6.75828C20.0594 7.28866 20.0542 8.53151 20.045 9.52019C20.0326 10.8631 20.0242 11.3218 20.0117 11.3335C20.0025 11.3421 19.915 11.3722 19.8173 11.4004C19.4695 11.5008 19.1196 11.6186 18.8911 11.7123C18.5141 11.8669 18.1124 12.0459 17.7672 12.2131C17.5891 12.2993 17.4308 12.3699 17.4155 12.3699C17.4001 12.3699 17.3875 12.3615 17.3875 12.3513C17.3875 12.3411 17.4418 12.2128 17.5081 12.0662C17.5744 11.9195 17.6664 11.7099 17.7124 11.6005C17.7585 11.491 17.8796 11.2101 17.9815 10.9764C18.187 10.5052 18.5953 9.5368 18.5953 9.52066C18.5953 9.51499 18.6825 9.29622 18.7891 9.03452C18.8957 8.77281 19.0067 8.49284 19.0358 8.41237C19.0648 8.33189 19.1656 8.06539 19.2596 7.82013C19.3537 7.57488 19.4928 7.19237 19.5688 6.9701C19.7282 6.50418 19.9842 5.808 20.0059 5.78157C20.0482 5.7302 20.0518 5.80049 20.0567 6.75828ZM20.0011 11.6371C20.0102 11.648 20.0235 11.7122 20.0305 11.7799C20.0375 11.8477 20.05 12.5866 20.0584 13.422C20.0742 15.0148 20.0919 15.9234 20.1161 16.3901C20.1589 17.2152 20.2704 17.6569 20.5993 18.3037C20.6682 18.4392 20.7688 18.6162 20.8228 18.6971C20.9947 18.9545 21.2039 19.2034 21.421 19.409C21.7111 19.6836 21.9938 19.8857 22.5163 20.1917C22.6848 20.2904 22.8314 20.3794 22.8421 20.3894C22.8585 20.4047 22.8573 20.4097 22.835 20.4212C22.8204 20.4286 22.7062 20.442 22.5811 20.4509C22.4137 20.4628 22.2657 20.4631 22.0198 20.4522C21.3711 20.4234 20.998 20.3793 20.6273 20.2876C20.3189 20.2113 19.7569 20.0337 19.4621 19.9194C19.2066 19.8203 18.7612 19.6379 18.5598 19.5498C18.3478 19.4571 17.5395 19.0701 17.36 18.9754C16.6696 18.611 16.4889 18.512 16.2486 18.3666C16.1809 18.3257 16.1217 18.2922 16.1169 18.2922C16.1073 18.2922 16.068 18.2683 15.512 17.9245C15.3051 17.7965 15.1307 17.6831 15.1247 17.6725C15.118 17.6607 15.1352 17.6049 15.1686 17.5302C15.1988 17.4627 15.2763 17.2819 15.3406 17.1286C15.405 16.9754 15.557 16.6182 15.6784 16.3349C15.7997 16.0517 15.9104 15.7883 15.9243 15.7496C15.9382 15.711 15.9848 15.5979 16.0278 15.4983C16.2144 15.066 16.3502 14.7453 16.3502 14.7366C16.3502 14.7315 16.4557 14.4818 16.5846 14.1818C16.7136 13.8819 16.8191 13.6319 16.8191 13.6264C16.8191 13.6057 17.1743 12.7849 17.1931 12.7621C17.2017 12.7517 17.3209 12.69 17.458 12.6251C18.1236 12.3097 18.3001 12.2279 18.4248 12.1772C18.499 12.147 18.7069 12.0597 18.8866 11.9832C19.0664 11.9067 19.3157 11.8093 19.4408 11.7669C19.8971 11.6119 19.9662 11.5959 20.0011 11.6371ZM16.7946 13.0009C16.8053 13.0281 16.5903 13.5786 16.3807 14.0608C16.2779 14.2972 16.1939 14.4951 16.1939 14.5005C16.1939 14.506 16.1263 14.6669 16.0437 14.8581C15.961 15.0492 15.859 15.2871 15.817 15.3868C15.775 15.4864 15.6929 15.6808 15.6347 15.8188C15.2694 16.6847 14.9918 17.331 14.948 17.4178C14.926 17.4612 14.9054 17.484 14.8882 17.484C14.8464 17.484 14.6777 17.3687 14.3182 17.0945C13.8624 16.7468 13.6818 16.5956 13.6305 16.5189C13.5888 16.4565 13.5855 16.2208 13.6197 15.7561C13.6358 15.5376 13.6531 15.2805 13.6582 15.1847C13.6633 15.0889 13.6727 15.0009 13.6791 14.9891C13.6855 14.9773 13.7275 14.9397 13.7725 14.9055C13.8175 14.8713 13.8835 14.8177 13.9193 14.7864C14.0754 14.6497 14.54 14.334 15.32 13.8343C15.9223 13.4485 16.7136 12.9845 16.7714 12.9833C16.7803 12.9832 16.7908 12.9911 16.7946 13.0009ZM13.3666 15.6401C13.357 15.7154 13.3438 15.7864 13.3373 15.7979C13.3154 15.8364 13.305 15.7748 13.3128 15.6527C13.3205 15.5305 13.3436 15.4636 13.3693 15.4889C13.3796 15.4989 13.3787 15.5455 13.3666 15.6401ZM13.6666 16.9319C13.7012 16.9578 13.9179 17.1123 14.1482 17.2751C14.6172 17.6067 14.7508 17.7082 14.7739 17.7506C14.7862 17.7731 14.7843 17.7942 14.7655 17.8443C14.7318 17.9342 14.2963 18.809 14.1506 19.0795C14.0845 19.2022 13.9759 19.406 13.9091 19.5324C13.705 19.9191 13.4664 20.3288 13.4402 20.3373C13.417 20.3449 13.418 20.2658 13.444 20.048C13.4802 19.7443 13.4937 19.4107 13.5078 18.4664C13.5154 17.9606 13.5249 17.5028 13.529 17.4492C13.5331 17.3955 13.5433 17.2544 13.5517 17.1356C13.5601 17.0168 13.5696 16.9118 13.5727 16.9022C13.5758 16.8926 13.5841 16.8848 13.591 16.8848C13.5979 16.8848 13.6319 16.906 13.6666 16.9319ZM12.6495 22.3104C12.5368 22.6919 12.1882 23.5439 12.0284 23.8286C11.9305 24.0029 11.7603 24.2642 11.6684 24.3813C11.5681 24.5092 11.3707 24.7158 11.224 24.8466C11.0226 25.026 10.7473 25.2351 10.3052 25.5443C9.95515 25.7892 9.87016 25.8405 9.87073 25.8066C9.87083 25.8009 9.94087 25.7178 10.0264 25.622C10.8434 24.7065 11.4999 23.8934 11.9642 23.2219C12.1429 22.9636 12.5464 22.3346 12.6059 22.2219C12.6173 22.2003 12.6379 22.1715 12.6518 22.1579C12.6759 22.134 12.6771 22.1342 12.6812 22.1611C12.6835 22.1765 12.6693 22.2437 12.6495 22.3104Z" fill="white" stroke="white" stroke-width="0.2"/>
<path d="M12.8 1H19.2C21.4567 1 23.0891 1.00078 24.373 1.10567C25.6451 1.20961 26.4868 1.41078 27.1779 1.76295C28.4951 2.43407 29.5659 3.50493 30.237 4.82207C30.5892 5.51325 30.7904 6.35487 30.8943 7.62705C30.9992 8.9109 31 10.5433 31 12.8V19.2C31 21.4567 30.9992 23.0891 30.8943 24.373C30.7904 25.6451 30.5892 26.4868 30.237 27.1779C29.5659 28.4951 28.4951 29.5659 27.1779 30.237C26.4868 30.5892 25.6451 30.7904 24.373 30.8943C23.0891 30.9992 21.4567 31 19.2 31H12.8C10.5433 31 8.9109 30.9992 7.62705 30.8943C6.35487 30.7904 5.51325 30.5892 4.82207 30.237C3.50493 29.5659 2.43407 28.4951 1.76295 27.1779C1.41078 26.4868 1.20961 25.6451 1.10567 24.373C1.00078 23.0891 1 21.4567 1 19.2V12.8C1 10.5433 1.00078 8.9109 1.10567 7.62705C1.20961 6.35487 1.41078 5.51325 1.76295 4.82207C2.43407 3.50493 3.50493 2.43407 4.82207 1.76295C5.51325 1.41078 6.35487 1.20961 7.62705 1.10567C8.9109 1.00078 10.5433 1 12.8 1Z" stroke="white" stroke-width="2"/>
</svg>
